<?xml version="1.0" encoding="UTF-8"?>
<svg id="Layer_1" data-name="Layer 1" xmlns="http://www.w3.org/2000/svg" version="1.1" viewBox="0 0 512 512">
  <path d="M262.8,7.5c33.1,16.6,67.7,30,101.6,45.1,33.2,14.8,66.7,29.1,100.1,43.4,5,2.2,8.7,4,8.6,11-.5,37.6-.4,75.2-.6,112.7-2.4,2.2-5.1,1.5-7.3.3-22.5-12.5-47-19-71.7-25.1-4.5-2.5-6.9-6.8-9.6-10.9-27.7-41.9-66.6-65-116.4-70.2-1.9-.2-3.7-.6-5.5-1.2-8.3-1-11.8-5.8-10.9-13.9,2.7-25.8,1.2-51.6,1.9-77.4.1-4.8-.5-9.8,3.2-13.9h6.8Z" fill="#006fdd" stroke-width="0"/>
  <path d="M256,7.5c0,25.2,0,50.4,0,75.6,0,3.4.6,7.1-.5,10.1-3.7,9.9-2.1,16.4,9.6,17.7-2.8,4.1-7.2,3.5-11.2,3.5-31.4-.2-59.4,9.7-85,27.3-2.8,1.9-5.4,4.1-8.9,4.4-7.8-5.5-16.1-9.2-25.9-9.6-7-.3-12.6-4.7-18.4-8.1-19.1-11.3-38.8-21.4-57.9-32.6,14.7-13,33.2-18.3,50.9-25.3,1.5-.7,3-.5,4.4,0,22.9,10.5,48.3,13.2,71.3,23.5,6.7,3,12.8,2.4,19.6,0,26.9-9.7,40.5-29.3,45-56.8,1.6-9.9-.4-20.4,5-29.6h2.3Z" fill="#0875df" stroke-width="0"/>
  <path d="M253.7,7.5c0,22.2-1.9,43.6-14.4,63.4-10.6,16.7-26.8,22.9-43.7,29-2.8,1-5.8-.6-8.7-1.5-18.8-6-36.3-15.6-56.6-16.8-8.3-.5-14.2-8-21.8-11.2,43.6-19.3,87.3-38.6,130.9-57.9,3.4-1.5,6.5-3.3,9.8-5h4.5Z" fill="#0b7ce7" stroke-width="0"/>
  <path d="M249.2,504.5c-3-1.6-6-3.3-9-4.9-32.8-34.6-63.5-71-93-108.3-5.1-6.4-12.1-13.1-6.1-22.8,3.4-.4,5.7,1.6,7.8,3.7,27.6,26.9,61.1,41,99.2,44.9,8.6,1.6,12,6.9,10.3,15.3-3.9,19.1,1,36.9,7,54.7,1.6,4.9,6.1,10.2-.3,15-1.5.9-3,1.7-4.5,2.6h-11.3Z" fill="#0b70d2" stroke-width="0"/>
  <path d="M472.4,348.5c0,11.6,1.3,23.4-.1,34.8-2.2,17.2-10.7,32.2-26.5,39.6-31.2,14.5-63.2,27.2-94.9,40.7-5.4-3.4-11.2-6-17-8.8-7.4-3.6-12.1-8.9-10.1-17.9,3.7-8.7,7.3-17.4,18.6-18.2,3.4,8.6,10.3,12.5,18.8,14.1,24.1,4.5,45.1-1.3,60.5-20.8,15.1-19.2,17.9-40.8,8-63.5-4.3-10-12.9-16.4-20.4-23.7-3.2-3.1-7.4-5.3-8.5-10.1.2-10.8,3.1-21,7.4-30.9,4.9-4.2,9.3-.8,13.3,1.3,26.1,13.8,42.7,35.4,50.9,63.6Z" fill="#238be4" stroke-width="0"/>
  <path d="M265,501.9c2.3-4.7-.6-8.6-2-12.7-6.7-18.7-12.8-37.6-7.2-57.8,2.2-8-2.7-10.4-8.9-12.2,2.1-3.3,5.7-3.8,9-3.6,19.2,1,37.3-3.5,55.1-9.9,1.8-.6,3.7-.8,5.6-.8,8.1.8,9.8,6.5,10.1,13.3.4,7.6-2.9,14.4-4.6,21.5-1.1,4.2-3.8,7.3-6.6,10.3-10.8,12.1-20.4,24.9-25.7,40.5-8.3,3.8-15.8,9.1-24.8,11.3Z" fill="#1477d4" stroke-width="0"/>
  <path d="M393,193.1c28.4,3.1,53.9,15,79.4,26.8,0,21.1,0,42.1,0,63.2-4.2,1.5-7.4-.8-10-3.4-13.7-13.2-29.5-22.9-47.7-28.6-2.5-.8-4.8-2.1-6.5-4.3-6-15.8-9.3-32.5-15.7-48.2-.7-1.7-.5-3.7.5-5.5Z" fill="#127de0" stroke-width="0"/>
  <path d="M409.7,247c20.6,5.1,38.5,14.8,53.6,29.9,2.6,2.5,6.1,4.1,9.1,6.2,0,21.8,0,43.7,0,65.5-9-10.1-10.8-24.2-20-34.4-12.1-13.5-24.8-25.8-42.7-31.1-5.6-12-5.6-24.1,0-36.1Z" fill="#1982e2" stroke-width="0"/>
  <path d="M289.8,490.6c-.7-18.5,13.7-28.7,23-41.8,1.9-2.7,4.3-5.1,6.4-7.6,2-1.9,2.4-6.2,6.8-4.5-2,11.1,5.8,14.6,13.9,17.8,4.7,1.9,10.3,2.4,11,9.1-19.4,11.1-39.9,19.7-61,27Z" fill="#1e86e2" stroke-width="0"/>
  <path d="M141,368.5c-1.1,8.1,2.6,14.6,7.5,20.4,28.1,33.8,55,68.7,86.2,99.9,3,3,4.9,6.5,5.6,10.8-64.3-27.9-128.5-55.9-192.8-83.6-6.7-2.9-8.4-6.7-8.3-13.5.2-88.7.1-177.5.2-266.2,0-16.2,5.9-29.9,18.4-40.5,16.3,2.8,28.8,13.5,43,20.7,14.4,7.3,26.9,18.4,44.5,19,5.2.2,12.3,1.6,13.8,9.2-8.1,10.7-17.2,20.6-25.1,31.5-38.4,52.7-38.7,123.7-.7,176.8,3.4,4.7,8.5,8.8,8,15.6Z" fill="#006fdd" stroke-width="0"/>
  <path d="M141,368.5c-38.6-47-49.1-99.3-29.5-157.2,7.6-22.4,22.1-40.6,36.8-58.6,2.8-3.4,6.2-6.5,10.6-8,31.4-23.8,66.7-35.4,106.2-33.7,57.1,4.9,99.3,33,128,82.2,7.9,17.2,13.5,35.2,16.7,53.9v36.1c-2.3,10.5-4.6,21-7,31.5-2.5,23.2-17.5,39.6-31.2,56.6-3.7,4.6-8.2,8.6-12.6,12.7-7.8,5.7-15.4,11.5-23.7,16.5-5.7,3.4-11.5,6.2-18.1,7.1-22.7,8.3-46,12.7-70.2,11.8-41.9-3.1-76.9-20.6-106-50.7Z" fill="#fefefe" stroke-width="0"/>
  <path d="M357.2,382.3c20.4-19,35.4-41.7,45.5-67.6,5.7,5.3,11.3,10.8,17.1,16,23.5,21.1,23.9,54.9,6.7,80.7-15.7,23.7-50.7,32.5-77.3,20.8-6.4-2.8-7.8-7.4-7.4-13.5-1.3-6.1,3-9.9,6.5-13.3,6.5-6.5,9.6-13.9,8.9-23Z" fill="#2a90e5" stroke-width="0"/>
  <path d="M357.2,382.3c5.6,7.9,2.3,14.8-3.3,20.6-4.6,4.9-8.5,10.2-12.1,15.7-6.7,4.7-12.5,10.3-15.8,18.1-2.3,1.5-4.5,3-6.8,4.5,0-8.3,5.6-15.5,4.6-24.1-.6-4.8-.5-9.2-6.7-9.7,14-7.4,27.5-15.6,40.1-25.1Z" fill="#2083d9" stroke-width="0"/>
  <path d="M287.5,217.2c-19.2-2.9-32,7.4-43.1,21-8.6,10.7-7.3,22.2-2.1,33.8,2.5,5.7,7.5,8.2,13.4,8.8,4.1.4,8.3.2,12.3.8,16.1,2.3,17.5,7.9,13.3,19.9-5.3,15.1-5.5,30.9,4,45.2,1.8.7,3.3,1.8,3.4,3.9.7,9.2-10.3,27.1-19.3,31.3-32.5,3.7-61.6-4.7-87.8-24.2-5.4-4-7.4-8-4.8-14.1,2.9-6.9,5.4-14,8.7-20.7,6.1-12.5,4.5-20.3-7.7-27.1-7.8-4.3-16.5-7.1-24.7-10.8-4.4-2-8.8-4.3-12.7-7.2-8.8-6.5-8.6-12.8-.4-20.3,6-5.5,15.4-6.7,19-15.2,14.7-11.8,30-21.3,48.7-26.8,21-6.2,42.5-4.6,63.4-8.9,8.2-1.7,15.1.3,16.3,10.4Z" fill="#0a6bcb" stroke-width="0"/>
  <path d="M287.5,217.2c-7.6-14.4-19.9-5.9-30-5.6-18.6.6-36.9,3.5-55,8.2-12.3,3.2-21.5,11.7-32.3,17.4-3.6,1.9-6.7,4.8-11,5.3-3.8-14,1-23,14.2-29.5,11.2-5.6,13.8-17.4,6-28.8-7.1-10.3-3.7-15.1,4.8-21.5,26.9-20.1,56.3-27.3,89.2-19.3,18.2,4.4,21.1,9.3,14.4,26.3-2.6,6.6-1.5,11.6,3.4,16.2,2.2,2.1,4.5,4,6.8,6,6.3,5.5,11.3,12.3,7.7,20.6-3.4,7.8-11.5,5-18,4.8Z" fill="#066dd4" stroke-width="0"/>
  <path d="M269.6,382c8.2-10.4,17.6-20.3,15.8-35.2,3.8.5,7.8,1.2,10.9-1.3,14.8-11.9,28.5-25.2,33.2-44.1,2.1-8.5,4.6-15.7,10.7-21.5,8.1-7.7,11.2-16.8,8.6-27.6-2.1-8.6,1.4-9.3,8.8-8.3,16.7,2.3,21.4,7.9,19.1,24.8-8,60.7-45.3,102.2-101.6,112.9-1.8.3-3.7.2-5.6.4Z" fill="#1678d3" stroke-width="0"/>
</svg>