<?xml version="1.0" encoding="UTF-8"?>
<svg id="a" xmlns="http://www.w3.org/2000/svg" version="1.1" viewBox="0 0 760.8 551.1">
  <path d="M4" fill="#fff800"/>
  <g id="b">
    <g>
      <g>
        <path d="M70.1,260.5h127.4v-35.6h-81.2v-46.6h34.6c23.1,0,17.1-34.1,17.1-34.1h-52.2v-46.6h81.2v-35.7l-127.4.5,1,197.6-.5.5h0Z" fill="#f0ff00" stroke-width="0"/>
        <path d="M141.3,458.1H26.5c-22.1.5-16,33.1-16,33.1h113.8c23.1-.5,17.1-33.1,17.1-33.1" fill="#f0ff00" stroke-width="0"/>
        <path d="M363.5,489.7h40.6l-1-198.1h-40.1c-1.5,0-3,0-4,.5-1,0-2,1-3,2s-2,2.5-3,4l-50.1,100.3c-2,3.5-3.5,7-5,11s-3.5,7.5-5,11.5c-1.5-4-3-7.5-5-11.5-1.5-3.5-3.5-7.5-5.5-10.5l-51.1-100.3c-1-1.5-2-3-3-4s-2-1.5-3-2c-1,0-2.5-.5-4-.5h-40.1l1,197.6h40.6v-122.4c0-3,0-6.5-1-9.5l53.1,101.8c1.5,3,4,5.5,6.5,7,3,1.5,6,2.5,9.5,2.5h6c3.5,0,6.5-1,9.5-2.5,2.5-1.5,5-4,6.5-7l52.2-101.8c-.5,6.5-1,12.5-.5,18v113.8h-1.1Z" fill="#f0ff00" stroke-width="0"/>
        <path d="M446.2,489.2h127.4v-35.6h-81.2v-46.6h34.6c23.1,0,17.1-34.1,17.1-34.1h-52.2v-46.1h81.2v-35.6h-127.4c0,.5,1,198.6,1,198.6l-.5-.5h0Z" fill="#f0ff00" stroke-width="0"/>
        <path d="M379,259h24.1l-1-198.1h-40.6v114.8c0,3.5,0,7,1,11l-93.3-117.8-3.5-3.5c-1-1-2-1.5-3-2-1,0-2.5-1-3.5-1h-29.1l1,198.1h40.6v-115.8c0-3.5,0-6.5-.5-10l93.8,117.3c2.5,3,4.5,5,7,6s5.5,1.5,9,1.5" fill="#f0ff00" stroke-width="0"/>
        <path d="M505.4,258.5h41.6l78.2-198.6h-37.1c-4,0-7,1-9.5,3s-4.5,4.5-5.5,7l-37.6,105.8c-1.5,4.5-3,9.5-5,15-1.5,5.5-3,11-4.5,17.1-1.5-6-3-11.5-5-17.1-2-5.5-3.5-10.5-5.5-15l-38.6-105.8c-1-3-3-5.5-5.5-7-2.5-2-6-2.5-10-2.5h-37.1l80.2,197.6,1,.5h-.1Z" fill="#f0ff00" stroke-width="0"/>
      </g>
      <rect x="649.1" y="60.6" width="46.1" height="197.6" transform="translate(-.6 2.3) rotate(-.2)" fill="#f0ff00" stroke-width="0"/>
      <polygon points="593.6 291.1 594.1 326.2 649.8 325.7 650.3 488.7 696.4 488.2 695.4 325.7 751.1 325.7 751.1 290.1 593.6 291.1" fill="#f0ff00" stroke-width="0"/>
    </g>
  </g>
</svg>