<?xml version="1.0" encoding="UTF-8"?>
<svg id="Layer_1" data-name="Layer 1" xmlns="http://www.w3.org/2000/svg" version="1.1" viewBox="0 0 24 24">
  <path d="M2" fill="#231f20" />
  <defs>
    <style>
      .cls-1 {
        fill: #fff;
        fill-opacity: 0;
      }

      .cls-1, .cls-2 {
        stroke-width: 0px;
      }

      .cls-2 {
        fill: #231f20;
      }
    </style>
  </defs>
  <path class="cls-1" d="M24,24H0V0h24v24Z"/>
  <path class="cls-2" d="M12,.6C5.5.5.2,5.8.1,12.3c0,5.1,3.3,9.6,8.1,11.1.6.1.8-.2.8-.6v-2c-3.3.7-4-1.6-4-1.6-.2-.7-.7-1.3-1.3-1.7-1.1-.7,0-.7,0-.7.8.1,1.4.5,1.8,1.2.7,1.2,2.2,1.6,3.5,1,0-.6.3-1.1.8-1.6-2.6-.3-5.4-1.3-5.4-5.8,0-1.2.4-2.3,1.2-3.2-.4-1-.3-2.1.1-3.1,0,0,1-.3,3.2,1.2,1.9-.5,4-.5,5.9,0,2.3-1.5,3.2-1.2,3.2-1.2.4,1,.5,2.1.1,3.1.8.8,1.3,2,1.3,3.1,0,4.5-2.8,5.5-5.4,5.8.6.6.9,1.4.8,2.2v3.2s.2.7.8.6c4.8-1.5,8.1-6,8.1-11.1,0-6.5-5.4-11.8-11.9-11.7"/>
</svg>