<?xml version="1.0" encoding="UTF-8"?>
<svg id="Layer_1" data-name="Layer 1" xmlns="http://www.w3.org/2000/svg" version="1.1" viewBox="0 0 512 512">
  <path d="M194.2,218.2c-2.7,0-5.4-.3-8.1-.8-12.3-2.6-22.4-10.5-26.5-20.8h0c-3.2-8.9-2.2-17.8,2.9-25.1,6-8.5,16.8-13.9,28.3-13.9,5.4,0,10.5,1.1,15.1,3.3,2.9,1.4,5.3,3,7.1,4.9l3,3-3.6-2.2c-11.9-7.3-24.1-7.9-32.6-1.6-6.2,4.6-9.1,12.2-7.4,18.9,0,.5.2,1,.4,1.4.1.3.2.6.3.8,2.5,6.3,8.8,11.2,16.4,12.8,8.4,1.7,16.9-.9,21.7-6.6-5.1-5.8-10.9-10.8-16.8-14.6l-2.3-1.5,2.7.6c8.2,1.7,15.7,4.7,21.9,8.6,4.3,2.7,7.7,5.7,10,9v.2c.1,0,0,.2,0,.2-3,13.9-16.9,23.2-32.7,23.2ZM160.6,196.2c3.9,10,13.8,17.7,25.7,20.2,18.3,3.7,36-5.9,39.6-21.4-2.3-3.1-5.5-6-9.6-8.6-5.4-3.4-11.8-6-18.9-7.8,5.3,3.7,10.5,8.3,15,13.6l.3.3-.3.3c-5,6.2-14.1,9.1-23,7.3-7.9-1.7-14.5-6.8-17.2-13.5,0-.3-.2-.6-.3-.8-.2-.5-.4-1.1-.5-1.6-1.9-7.1,1.2-15.1,7.7-19.9,7.5-5.6,17.7-6,28.1-1.4-.6-.3-1.2-.7-1.8-1-4.5-2.2-9.4-3.3-14.7-3.3-11.2,0-21.7,5.2-27.5,13.5-3.4,4.9-6.7,13.1-2.8,24.1Z" display="none" fill="#405d18" stroke-width="0"/>
  <path d="M59,259.5c26,65.9,91.1,117,170,133.4,121.1,24.6,238-38.7,261.4-141.4-15.1-20.6-36.5-39.7-63.6-56.7-35.5-22.3-78.3-40-124.6-51.6,35.1,24.4,69.1,55,99.1,89.6l1.8,2.1-1.8,2.2c-33.3,41-92.9,59.8-151.9,48.1-52.5-11-96-45.2-113.4-89.2-.6-1.9-1.2-3.7-1.8-5.5-1.2-3.5-2.5-7.1-3-10.4-12.3-46.7,8.2-99.9,51.2-131.8,49.4-36.7,116.7-39.6,185.5-9.3-3.9-2.2-8-4.3-12.2-6.4-29.7-14.2-62.4-21.5-97-21.5-73.8.4-143.3,34.5-181.6,89.2-22.7,32.5-44.3,86.5-18.2,159.4Z" fill="#405d18" stroke-width="0"/>
  <g>
    <path d="M20.2,271.9c4.6,128.8,109,229.3,237.9,229.3h9.2c111-4,202.2-83.9,224.6-189-38.3,64.1-114.3,107-199.5,110.3-22.5.7-45.6-1.3-68.1-5.9-86.6-17.8-157.9-74.7-187.6-148l-.7-2c-5.9-16.5-9.9-33-11.2-49.6-4,17.8-5.3,35.7-4.6,54.8" fill="#003a5d" stroke-width="0"/>
    <path d="M253.4,88.2l-5.9-56.2,28.4,48.9c3.3,5.9,1.3,13.2-4.6,16.5-5.9,3.3-13.2,1.3-16.5-4.6-.7-1.3-1.3-2.6-1.3-4.6" fill="#f7921e" stroke-width="0"/>
    <path d="M225,125.2l-44.3-35.7,54.2,14.5c6.6,2,9.9,7.9,8.6,14.5-2,6.6-7.9,9.9-14.5,8.6-1.3,0-2.6-.7-4-2" fill="#f7921e" stroke-width="0"/>
    <path d="M231.6,171.4l-56.2,5.9,48.9-28.4c5.9-3.3,13.2-1.3,16.5,4.6,3.3,5.9,1.3,13.2-4.6,16.5-2,.7-3.3,1.3-4.6,1.3" fill="#f7921e" stroke-width="0"/>
    <path d="M268,199.2l-35.7,44.3,14.5-54.8c2-6.6,7.9-9.9,14.5-8.6,6.6,2,9.9,7.9,8.6,14.5,0,2-.7,4-2,4.6" fill="#f7921e" stroke-width="0"/>
    <path d="M314.2,193.2l5.9,56.2-28.4-48.9c-3.3-5.9-1.3-13.2,4.6-16.5,5.9-3.3,13.2-1.3,16.5,4.6.7,1.3,1.3,3.3,1.3,4.6" fill="#f7921e" stroke-width="0"/>
    <path d="M336,110l56.2-5.9-48.9,28.4c-5.9,3.3-13.2,1.3-16.5-4.6-3.3-5.9-1.3-13.2,4.6-16.5,2-.7,3.3-.7,4.6-1.3" fill="#f7921e" stroke-width="0"/>
    <path d="M299,82.2l35.7-44.3-14.5,54.8c-2,6.6-7.9,9.9-14.5,8.6-6.6-2-9.9-7.9-8.6-14.5.7-2,1.3-3.3,2-4.6" fill="#f7921e" stroke-width="0"/>
  </g>
</svg>