<?xml version="1.0" encoding="UTF-8"?>
<svg id="Layer_1" data-name="Layer 1" xmlns="http://www.w3.org/2000/svg" version="1.1" viewBox="0 0 480 480">
  <path fill="#ffd600" d="M2,479V2h477v477H2Z"/>
  <path fill="#000001" d="M313.9,359c9.2,14.9,19.1,29.2,40.2,29.2s27-8.8,27-21-9.6-19.8-29.1-28.3l-10.7-4.6c-30.9-13.1-51.4-29.5-51.4-64.1s24.4-56.2,62.6-56.2,46.7,9.4,60.8,34.1l-33.3,21.3c-7.3-13.1-15.3-18.2-27.5-18.2s-20.5,7.9-20.5,18.2,8,17.9,26.3,25.9l10.7,4.6c36.4,15.5,56.9,31.3,56.9,66.9s-30.3,59.3-70.9,59.3-62.3-19.9-74.9-44.6l33.6-22.3ZM160.4,360.1c6.7,12,16.9,21.2,31.5,21.2s22.1-5.5,22.1-27.1v-140.3h44.2v147.1c0,44.6-25.9,64.9-63.7,64.9s-58.8-23.1-68.8-44.6l34.7-21.2Z"/>
</svg>