<?xml version="1.0" encoding="UTF-8"?>
<svg id="Layer_1" data-name="Layer 1" xmlns="http://www.w3.org/2000/svg" version="1.1" viewBox="0 0 460 512">
  <defs>
    <style>
      .cls-1 {
        fill: #7dbd44;
      }

      .cls-1, .cls-2 {
        stroke-width: 0px;
      }

      .cls-2 {
        fill: #b3df5e;
      }
    </style>
  </defs>
  <path class="cls-1" d="M156.5,498.6c-28.2,26.5-77.3,11.4-108.6-24.2C6.4,427.1-8.6,337.7,4.8,257.9l151.7,240.7ZM189.2,468.1c-18.2-7.7-91.5-45.6-62.5-179.8-46.5-30.5-113.1-53.5-117.4-58.5,0,0,.2,8.1-2,23.9l157.6,235.4c3.9-7.7,14.3-13.9,24.2-21Z"/>
  <path class="cls-2" d="M139.4,388.5c15.5,51.2,43,57.2,63.3,69.9L408.6,18h2.4l-191.1,455c19.4,18.3,45.2,36.6,84,27.9C463.9,472.3,500.4,214.2,413.9,0c-101.8,69.8-177.9,107.4-227.6,181.3-38.6,57.5-68.6,138.4-46.9,207.2Z"/>
</svg>