<?xml version="1.0" encoding="UTF-8"?>
<svg id="Layer_1" data-name="Layer 1" xmlns="http://www.w3.org/2000/svg" version="1.1" xmlns:xlink="http://www.w3.org/1999/xlink" viewBox="0 0 512 512">
  <path d="M243.6,7.5L37.7,121.4c-7.7,4.2-12.5,12.1-12.5,20.6v227.9c0,8.5,4.7,16.4,12.5,20.6l205.9,114c7.7,4.2,17.2,4.2,24.9,0l205.8-114c7.6-4.3,12.4-12.1,12.4-20.6v-227.9c0-8.5-4.7-16.4-12.5-20.6L268.5,7.5c-3.9-2.1-8.2-3.2-12.5-3.2s-8.6,1-12.5,3.2" fill="#5aad45" stroke-width="0"/>
  <path d="M243.6,7.5L25.3,369.9c0,8.5,4.7,16.4,12.5,20.6l205.9,114c7.7,4.2,17.2,4.2,24.9,0l218.2-362.5c0-8.5-4.7-16.4-12.5-20.6L268.5,7.5c-3.9-2.1-8.2-3.2-12.5-3.2s-8.6,1-12.5,3.2" fill="#76ac64" stroke-width="0"/>
  <path d="M243.6,7.5L37.7,121.4c-7.7,4.2-12.5,12.1-12.5,20.6l218.3,362.5c7.7,4.2,17.2,4.2,24.9,0l205.8-114c7.7-4.3,12.4-12.1,12.4-20.6L268.5,7.5c-3.9-2.1-8.2-3.2-12.5-3.2s-8.6,1-12.5,3.2" fill="#3e863d" stroke-width="0"/>
</svg>