<?xml version="1.0" encoding="UTF-8"?>
<svg id="Layer_1" data-name="Layer 1" xmlns="http://www.w3.org/2000/svg" version="1.1" xmlns:xlink="http://www.w3.org/1999/xlink" viewBox="0 0 512 512">
    <path d="M" fill="#0092c8" stroke-width="0"/>
  <defs>
    <clipPath id="clippath">
      <path d="M193.1,44.8L44.8,193.2c-34.7,34.7-34.7,91.1,0,125.8l148.3,148.3c34.7,34.7,91.1,34.7,125.8,0l148.3-148.3c34.7-34.7,34.7-91.1,0-125.8L318.9,44.8c-17.1-17.5-40.1-26.1-63.1-26.1s-45.6,8.6-63.1,26.1" fill="none" stroke-width="0"/>
    </clipPath>
    <linearGradient id="linear-gradient" x1="-84.4" y1="-68.9" x2="-77.8" y2="-68.9" gradientTransform="translate(7138.1 2401.3) rotate(-23) scale(67.6)" gradientUnits="userSpaceOnUse">
      <stop offset="0" stop-color="#0092c8"/>
      <stop offset="1" stop-color="#00afdd"/>
    </linearGradient>
    <mask id="mask" x="-243.1" y="-242.8" width="997.9" height="997.9" maskUnits="userSpaceOnUse">
      <g id="mask-2" data-name="mask">
        <g id="mask-2">
          <g id="SVGID">
            <g>
              <rect x="6.4" y="6.4" width="499.1" height="499.1" fill="#000" stroke-width="0"/>
              <g isolation="isolate">
                <path d="M170.3,331.9c41.7-30-30.4-60.3-47.9-69.3-17.9-9,0-26.5,18.7-34.7,18.7-8.2,12.5,50.6,34.7,28.4,21.4-21.4-36.2-46.3,12.8-75.9,49.4-29.6-21.8-21.8-21.8-49.4s31.1-31.1,31.1-52.2-24.1-16.4-40.5-16.4l-121.5,121.5c-2.7,2.7-5.1,5.5-7.4,8.6.4,23,28,26.5,43.6,26.5s30.4,30.4,10.5,49.8c-19.5,19.5-21,53-8.2,65.8,8.6,8.6,5.5,24.5,2.7,34.3l23,23c6.2-20.2,33.9-33.5,70.5-60" fill="#fff" stroke-width="0"/>
                <path d="M245.5,39.1c33.5-4.3,2.3,23.4,18.3,30.4,14.4,6.2,53-12.8,57.2-39.3-18.7-16-42.1-23.8-65.4-23.8s-20.6,1.6-30.8,4.7c-1.9,13.2,0,30.8,20.6,28" fill="#fff" stroke-width="0"/>
                <path d="M327.6,228c-5.5-23-59.2-31.5-84.9-12.5-37.8,27.6-44,80.6-14.4,83.7s56.1,31.5,41.3,59.6c-14.8,28,17.9,96.9,53.7,47.1,35.8-49.8,17.9-59.6,20.6-87.2,2.7-27.3,36.6-62.3,28-72.4-8.2-10.1-40.5-.4-44.8-18.3" fill="#fff" stroke-width="0"/>
                <path d="M207.3,493.1c15.2,8.2,31.9,12.5,48.7,12.5h0c26.1,0,51.8-9.7,71.6-29.6l12.5-12.5c-21.4-3.9-95.4,17.9-132.8,29.6" fill="#fff" stroke-width="0"/>
                <path d="M419.9,297.7c-40.1,14-67.7,58.4-44.8,64.6,21.8,5.8,44.8-11.7,60.3,5.8l40.1-40.1c-7.8-15.6-20.2-42.4-55.7-30.4" fill="#fff" stroke-width="0"/>
                <path d="M290.7,134.5c9-1.2,1.9-11.3-3.1-13.6s-21.8-1.2-15.6,6.2c4.7,5.5,9.7,8.6,18.7,7.4" fill="#fff" stroke-width="0"/>
                <path d="M484.2,254.1c0-5.5-19.9-10.9-24.9-10.1-5.1.4-7,9.3,7.8,12.8,10.9,2.7,17.5,2.7,17.1-2.3" fill="#fff" stroke-width="0"/>
                <path d="M312.1,93.6c-2.3,17.5,15.2,24.1,6.6,32.7s-60.3,27.3-48.3,32.7c32.3,14.4-22.6,12.5,0,35s46.3-8.6,42.8-21.8c-1.2-3.9,9.7-17.9,18.3-10.5,7.4,6.6,30.4,13.6,30.4,51.8s17.5,40.1,35.4,35.4c14.8-3.9,17.5-22.6,8.2-29.6-11.7-8.6,19.9-19.5,52.2,15.6,14.8,16,39.3-3.5,44.4-4.7h0c-4.3-16.7-13.2-32.7-26.1-45.9l-122.6-122.6c-22.6,2.3-40.1,24.5-41.3,31.9" fill="#fff" stroke-width="0"/>
              </g>
            </g>
          </g>
        </g>
      </g>
    </mask>
    <clipPath id="clippath-1">
      <rect x="6.4" y="6.4" width="499.1" height="499.1" fill="none" stroke-width="0"/>
    </clipPath>
    <clipPath id="clippath-2">
      <path d="M256,6.4c-26.1,0-51.8,9.7-71.6,29.6L36,184.4c-19.5,19.5-29.2,44.8-29.6,70.5v2.3c0,25.7,10.1,51,29.6,70.5l148.3,148.3c19.9,19.9,45.6,29.6,71.6,29.6h0c26.1,0,51.8-9.7,71.6-29.6l148.3-148.3c19.9-19.9,29.6-45.9,29.6-71.6s-9.7-51.8-29.6-71.6L327.6,36c-19.9-19.9-45.6-29.6-71.6-29.6h0Z" fill="none" stroke-width="0"/>
    </clipPath>
    <linearGradient id="linear-gradient-2" x1="-89.8" y1="-69.7" x2="-83.2" y2="-69.7" gradientTransform="translate(7114.4 -597.2) rotate(-46) scale(62.3)" gradientUnits="userSpaceOnUse">
      <stop offset="0" stop-color="#8cc63f"/>
      <stop offset=".6" stop-color="#c9e39f"/>
      <stop offset="1" stop-color="#f1f6de"/>
    </linearGradient>
    <clipPath id="clippath-3">
      <rect x="6.4" y="6.4" width="499.1" height="499.1" fill="none" stroke-width="0"/>
    </clipPath>
    <clipPath id="clippath-4">
      <rect x="6.4" y="6.4" width="499.1" height="499.1" fill="none" stroke-width="0"/>
    </clipPath>
    <clipPath id="clippath-5">
      <rect x="6.4" y="6.4" width="486.3" height="338.7" fill="none" stroke-width="0"/>
    </clipPath>
    <clipPath id="clippath-6">
      <rect x="6.4" y="6.4" width="486.3" height="338.7" fill="none" stroke-width="0"/>
    </clipPath>
  </defs>
  <path d="M476,184.4L327.6,36c-19.9-19.9-45.9-29.6-71.6-29.6s-51.8,9.7-71.6,29.6L36,184.4c-19.9,19.9-29.6,45.6-29.6,71.6s9.7,52.2,29.6,71.6l148.3,148.3c19.9,19.9,45.6,29.6,71.6,29.6h0c26.1,0,51.8-9.7,71.6-29.6l148.3-148.3c19.9-19.9,29.6-45.9,29.6-71.6s-9.7-51.8-29.6-71.6" fill="#0092c8" stroke-width="0"/>
  <g clip-path="url(#clippath)">
    <polygon points="-163.5 92.3 426.7 -158 675.9 427.9 85.3 678.7 -163.5 92.3" fill="url(#linear-gradient)" stroke-width="0"/>
  </g>
  <g>
    <g mask="url(#mask)">
      <g clip-path="url(#clippath-1)">
        <g clip-path="url(#clippath-2)">
          <polygon points="-243.1 264.6 247 -242.8 754.8 247.4 264.6 755.1 -243.1 264.6" fill="url(#linear-gradient-2)" stroke-width="0"/>
        </g>
      </g>
    </g>
    <g opacity=".2">
      <g clip-path="url(#clippath-3)">
        <g clip-path="url(#clippath-4)">
          <path d="M256,505.6c-26.1,0-51.8-9.7-71.6-29.6L36,327.6c-19.9-19.9-29.6-45.9-29.6-71.6s9.7-51.8,29.6-71.6L184.4,36c19.9-19.9,45.6-29.6,71.6-29.6s51.8,9.7,71.6,29.6l148.3,148.3c19.9,19.9,29.6,45.6,29.6,71.6s-9.7,51.8-29.6,71.6l-148.3,148.3c-19.9,19.9-45.9,29.6-71.6,29.6h0v.2ZM53.1,201.9c-14.8,14.8-22.2,34.7-22.2,54.1s7.4,39.3,22.2,54.5l148.3,148.3c14.8,14.8,34.7,22.2,54.1,22.2s39.3-7.4,54.1-22.2l148.3-148.3c14.8-14.8,22.2-34.7,22.2-54.1s-7.4-39.3-22.2-54.1L309.7,53.9c-14.8-14.8-34.7-22.2-54.1-22.2s-39.3,7.4-54.1,22.2L53.1,202.3v-.4h0Z" fill="#0092c8" stroke-width="0"/>
        </g>
      </g>
    </g>
    <g opacity=".2">
      <g clip-path="url(#clippath-5)">
        <g clip-path="url(#clippath-6)">
          <path d="M492.7,206.6c-4.3-7.8-10.1-15.6-16.7-22.2L327.6,36c-19.9-19.9-45.9-29.6-71.6-29.6s-51.8,9.7-71.6,29.6L36,184.4c-19.9,19.9-29.6,45.6-29.6,71.6s9.7,52.2,29.6,71.6l17.5,17.5c31.5-48.7,182.6-254.6,439.2-138.6" fill="#fff" stroke-width="0"/>
        </g>
      </g>
    </g>
  </g>
</svg>