<?xml version="1.0" encoding="UTF-8"?>
<svg id="Layer_1" data-name="Layer 1" xmlns="http://www.w3.org/2000/svg" version="1.1" viewBox="0 0 512 512">
  <path d="M4.7,186.6c0-63.7,0-95.5,12.4-119.8,10.9-21.4,28.3-38.8,49.7-49.7,24.3-12.4,56.1-12.4,119.8-12.4h138.8c63.7,0,95.5,0,119.8,12.4,21.4,10.9,38.8,28.3,49.7,49.7,12.4,24.3,12.4,56.1,12.4,119.8v138.8c0,63.7,0,95.5-12.4,119.8-10.9,21.4-28.3,38.8-49.7,49.7-24.3,12.4-56.1,12.4-119.8,12.4h-138.8c-63.7,0-95.5,0-119.8-12.4-21.4-10.9-38.8-28.3-49.7-49.7-12.4-24.3-12.4-56.1-12.4-119.8v-138.8Z" fill="#300" stroke-width="0"/>
  <g>
    <path d="M248.3,320.5h-77.9l-15.8,50.5c-.4,1.9-2.2,3.2-4,3.1h-39.4c-2.2,0-3-1.3-2.4-3.8l67.4-199.2c.7-2.1,1.3-4.4,2-7.1.9-4.6,1.3-9.3,1.3-14-.2-1.4,1-2.6,2.4-2.4h53.6c1.6,0,2.5.6,2.7,1.7l76.5,221.3c.7,2.3,0,3.5-2,3.5h-43.8c-1.5.2-3-.9-3.4-2.4l-17.2-51.2ZM182.5,277h53.3c-8.8-29.9-18.6-59.4-26.6-89.6-8.6,30.2-18.1,60.3-26.6,89.6Z" fill="#ff9a00" stroke-width="0"/>
    <path d="M360.2,184.3c-3.4.1-6.9-.5-10.1-1.8-3.2-1.3-6.1-3.3-8.5-5.8-2.4-2.6-4.2-5.7-5.5-9.1-1.2-3.4-1.8-7-1.6-10.6-.1-3.6.5-7.1,1.8-10.4,1.3-3.3,3.3-6.3,5.8-8.8,2.5-2.4,5.4-4.4,8.6-5.6,3.2-1.3,6.6-1.9,10.1-1.8,8.1,0,14.4,2.5,19,7.4,2.3,2.6,4.1,5.6,5.3,8.9,1.2,3.3,1.7,6.8,1.6,10.3.1,3.6-.4,7.2-1.7,10.6-1.2,3.4-3.1,6.5-5.6,9.1-2.5,2.6-5.6,4.6-8.9,5.9-3.3,1.3-6.9,1.9-10.5,1.7ZM336.9,370.7v-165.3c0-2.1.9-3.1,2.7-3.1h41.5c1.8,0,2.7,1,2.7,3.1v165.3c0,2.3-.9,3.5-2.7,3.5h-41.1c-2,0-3-1.2-3-3.5Z" fill="#ff9a00" stroke-width="0"/>
  </g>
</svg>