<?xml version="1.0" encoding="UTF-8"?>
<svg id="Layer_1" data-name="Layer 1" xmlns="http://www.w3.org/2000/svg" version="1.1" viewBox="0 0 512 512">
  <path fill="#000" d="M386.4,35.5C217.1-64.1,1.9,57.5,0,253.9c-1.8,191.7,201.1,315.5,370,231.2L185.6,213.6v168c0,18.6-35.6,18.6-35.6,0v-225.2c0-14.8,27.4-16,35.2-3.1l210.3,317.3c158-101.7,155.8-338.1-9-435.1h0ZM362.6,353.4l-35.7-54.6v-149.4c0-13.9,35.7-13.9,35.7,0v204Z"/>
  <path fill="#fff" d="M370,485L185.6,213.6v168c0,18.6-35.6,18.6-35.6,0v-225.2c0-14.8,27.4-16,35.2-3.1l210.3,317.3-25.4,14.5ZM362.6,353.4l-35.7-54.6v-149.4c0-13.9,35.7-13.9,35.7,0v204Z"/>
</svg>