<?xml version="1.0" encoding="UTF-8"?>
<svg id="Layer_1" data-name="Layer 1" xmlns="http://www.w3.org/2000/svg" version="1.1" viewBox="0 0 512 512">
  <path d="M380.8,257.2c-67.3,35.5-129.2,68.2-193.6,102.2v-203.1c64,33.3,126.2,65.8,193.6,100.9Z" fill="#003a40" stroke-width="0"/>
  <path d="M503.3,245.5c-27.2,0-53.7-.4-80.1.2-12,.2-14.3-6.4-16.5-16.3-14.9-67-56.6-107.5-123.5-122.3-28.9-6.4-13.2-29-14.2-43.7-1.1-16.5,13.8-8.7,21.9-7.1,73,14.2,126.3,54.9,153.5,124.1,9.9,25.1,22.8,42.8,47.1,53.1,4.2,1.8,10.4,3.2,11.7,12.1Z" fill="#023b41" stroke-width="0"/>
  <path d="M243.5,6c0,30.4-.5,55.3.2,80.2.3,12.8-3.4,18.4-17.2,21.4-65.9,14.3-107.3,55.2-121.5,121.1-6.5,30.2-28.5,15.9-42.9,15.9-20.4,0-9.4-16.6-7.6-26,12.7-64.7,49.5-112.1,107.4-142.9,48.2-25.6,48.4-25.1,81.6-69.7Z" fill="#4eb05c" stroke-width="0"/>
  <path d="M9,270.5c7.7,0,15.4.3,23.1,0,40-2,74.2-6.2,86.2,51.4,10,47.9,55.2,74.8,104.5,86.6,16.8,4,29.1,35.3,19.5,49.8-4.7,7-11.4,3.8-17,2.7-69.6-12.8-123.9-48.5-153.1-113.5-14.3-32-28-60.7-66-70.5.9-2.2,1.9-4.3,2.8-6.5Z" fill="#023b41" stroke-width="0"/>
  <path d="M267.9,505.9c0-8.6.6-15.8-.1-22.9-4.6-42.7-3.3-74.8,53.1-88,47.8-11.1,76-55.6,85-105.4,5.8-32.1,28.8-18.8,43.9-18.2,20.1.8,8.6,17.4,6.6,26.7-14.8,70.8-55.7,121.7-122.7,148.4-24.9,9.9-43.4,22.1-53.4,47-1.8,4.5-3.3,10.4-12.5,12.3Z" fill="#4eb05c" stroke-width="0"/>
</svg>