<?xml version="1.0" encoding="UTF-8"?>
<svg id="Layer_1" data-name="Layer 1" xmlns="http://www.w3.org/2000/svg" version="1.1" viewBox="0 0 32 32">
  <defs>
    <style>
      .cls-1 {
        fill: #729ca5;
      }

      .cls-1, .cls-2, .cls-3, .cls-4, .cls-5, .cls-6, .cls-7, .cls-8, .cls-9, .cls-10, .cls-11, .cls-12, .cls-13, .cls-14, .cls-15, .cls-16, .cls-17, .cls-18, .cls-19, .cls-20, .cls-21, .cls-22, .cls-23, .cls-24, .cls-25, .cls-26, .cls-27, .cls-28, .cls-29, .cls-30, .cls-31, .cls-32, .cls-33, .cls-34, .cls-35, .cls-36 {
        stroke-width: 0px;
      }

      .cls-2 {
        fill: #f1f3f8;
      }

      .cls-3 {
        fill: #d8dad7;
      }

      .cls-4 {
        fill: #fd3b3b;
      }

      .cls-5 {
        fill: #d9e3e6;
      }

      .cls-6 {
        fill: #739ca8;
      }

      .cls-7 {
        fill: #6f9aa3;
      }

      .cls-8 {
        fill: #8caabb;
      }

      .cls-9 {
        fill: #fcfbfc;
      }

      .cls-10 {
        fill: #d5dde8;
      }

      .cls-11 {
        fill: #6d99a2;
      }

      .cls-12 {
        fill: #fece15;
      }

      .cls-13 {
        fill: #9dcc9f;
      }

      .cls-14 {
        fill: #d5dde9;
      }

      .cls-15 {
        fill: #13151a;
      }

      .cls-16 {
        fill: #c0d5ac;
      }

      .cls-17 {
        fill: #cbd7e3;
      }

      .cls-18 {
        fill: #b0d0bb;
      }

      .cls-19 {
        fill: #6b97a1;
      }

      .cls-20 {
        fill: #36679a;
      }

      .cls-21 {
        fill: #6a97a0;
      }

      .cls-22 {
        fill: #e2e6ed;
      }

      .cls-23 {
        fill: #7798ba;
      }

      .cls-24 {
        fill: #c0cedf;
      }

      .cls-25 {
        fill: #9acb9b;
      }

      .cls-26 {
        fill: #acc7bd;
      }

      .cls-27 {
        fill: #68959e;
      }

      .cls-28 {
        fill: #d1dae7;
      }

      .cls-29 {
        fill: #d8e0e8;
      }

      .cls-30 {
        fill: #37689b;
      }

      .cls-31 {
        fill: #c2cfe0;
      }

      .cls-32 {
        fill: #88a8b8;
      }

      .cls-33 {
        fill: #e9ecf0;
      }

      .cls-34 {
        fill: #e3d8a5;
      }

      .cls-35 {
        fill: #6c9af6;
      }

      .cls-36 {
        fill: #f5f6fa;
      }
    </style>
  </defs>
  <path class="cls-20" d="M21.4,16.5c-.2.2-.4.3-.6.5-.8,1-2,1-3,1.2-1.1.1-2.2.1-3.3-.2-.7-.2-1.3-.5-1.9-.8-1.2-.7-1.2-.9-.5-2.1-.4.8-1,1.1-1.8,1.2-4.2.7-6.8-.7-8.6-4.6-1-2.1-.5-3.1,1.8-3.4,2.3-.4,4.5-1.1,6.5-2.6.6-.5.5-1.2,1-1.7,2.4-2.7,5.9-3.1,9.3-1,2,1.2,3.4,3,4.2,5.2.2.5.4,1,.2,1.5-.5,1.2-.2,2.3.4,3.3,0,.1,0,.2,0,.3.1.4.3.7.6.2.8.2,1.5,0,2.2-.6.4-.3.8-.5,1.2-.7.5-.3,1.1-.6,1.8-.3.3.1.4.5.2.7-.4.6-.2,1.6-1.2,1.8-.5,0-.9.3-1.1.6-1.2,1.9-3,1.7-4.8,1.4-.5,0-1-.1-1.5-.2-.5-.2-1,.1-1.6,0-1.2-.3-2.2-.8-3.1-1.6-.2-.2-.4-.5-.8-.3-.4.2-.2.5-.1.8,0,.3,0,.5,0,.8,0,.4.3.7.7.4,1-.9,2-.7,3-.2.3.2.8,0,1.1.4Z"/>
  <path class="cls-20" d="M21,17.4c0,.1.1.3.2.4.7-.6,1.4,0,2.1,0,.5.1.8.4.2.7-.8.4-1.2,1.1-1.9,1.6-.3.1-.7.1-1,.1-.7-.1-1.3-.4-1.7-.9-.3-.4-.5-.4-.9-.1-.1,0-.3.2-.4.2-.8,0-1.6-.3-2.4-.2.8,0,1.5.1,2.2.3.2,0,.3.2.4.3.3.3.2.8.3,1.2,0,.1.2.2.3.3.8.3,1.3.7.2,1.4-.9.6.3,1,.3,1.6-.2.6-.5.9-1.2.8-.3-.1-.5-.4-.6-.7-.4-1-1.1-1.6-2-2.1,0,0-.2-.1-.3-.2-.4-.3-.9-.2-1.3,0-.3.2-.8-.3-1,.3-.6,1.5-1.1,3.1-.6,4.7.1.6.3,1.1.5,1.7.1.3.4.8-.2.9-1.7-1.5-3.7-2.6-5.2-4.4-.3-.3-.6-.5-.9-.7-.6-.4-1.2-.7-1.9-.3-.6.4,0,1.1,0,1.7-.7-.6-1.7-1.1-1.1-2,.8-1.3,2.1-.6,3.3-.3,0-2.2.9-4,2-5.7.5-.8,1.1-1.5,2.1-1.6.4-.5.7-.2,1.1,0,.8.6,1.6,1,2.5,1.3,2,.6,4,.5,6-.3.3-.1.6-.3.9,0Z"/>
  <path class="cls-25" d="M16.8,29.2c-1.4,1.5-2.2,1.6-3.8.4-.9-1-1.1-2.1-1-3.3.2-.5.2-1,.3-1.5.4-1,.9-1.9,2.2-2.1.2-.2.2-.6.6-.6h0c2.4,1.2,3.1,4,2.4,6.1-.1.4-.3.8-.7,1Z"/>
  <path class="cls-12" d="M28.6,22.1q0,2.2-1.7,2.7c-.2.2-.4.4-.7.4-1.1,0-2.2.7-3.3,0-.1,0-.3,0-.4,0-.9.5-1.9.4-2.8,0-.5-.3-.6-.7-.3-1.2.3-.4.4-.8.9-1.1,1-.2,2-.1,3-.1,1.5,0,3,0,4.5-.6.3-.1.5-.2.8,0Z"/>
  <path class="cls-9" d="M28.6,22.1c-2.7,1.3-5.6.9-8.4.9-.6-.3-.7-.8-.7-1.4.1-.5.3-1.1.6-1.5.1,0,.2,0,.4,0,1.3.4,2.7,0,4.1.1,1.5.1,2.9.4,4.1,1.3,0,.2,0,.3,0,.5Z"/>
  <path class="cls-30" d="M19.6,24.9c.9.4,1.9.2,2.9.3,0,1-.2,1.9.1,2.9-1.6-.1-2.7,1.1-4.2,1.1-1.3,0-1.3,0-1-1.1.3-.9,0-1.9.3-2.8.6,0,1.1-.8,1.8-.4Z"/>
  <path class="cls-25" d="M26.4,24.9c0-.2.2-.2.4-.1,0,1.5-.5,2.8-1.6,3.7-1,.9-1.9.5-2.4-.8-.3-.8-.2-1.5,0-2.3,1.2-.2,2.4-.2,3.5-.5Z"/>
  <path class="cls-33" d="M17.9,25.4c-.2,1.2,0,2.5-.7,3.7.4.4.8,0,1.2.2-.5.4-1.1.2-1.6,0,.8-1.8,1-3.6,0-5.4-.4-.8-1.4-.9-1.7-1.7,1.6.3,2.1,1.5,2.6,2.8.1.1.4.2.2.4Z"/>
  <path class="cls-12" d="M28.6,21.6c-1.6-.7-3.4-1-5.1-1-.8,0-1.6.3-2.4,0-.3,0-.7.1-.8-.4,0-.1.2-.2.4-.2,1.5-.1,3.1-.3,4.6-.2.7.1,1.4.2,2,.7.5.3,1.1.4,1.2,1Z"/>
  <path class="cls-14" d="M21,17.4c-1.9.7-3.9,1.3-5.9.7-.4,0-.7-.2-1.1-.3,0-.2,0-.3.3-.2,2.2.5,4.4.4,6.5-.6,0,.1.1.3.2.4Z"/>
  <path class="cls-28" d="M14.3,17.6c-.1,0-.2.2-.3.2-.8-.2-1.6-.6-2.3-1.1-.3-.2-.6-.4-1.1-.3-.2,0-.3-.1-.5-.2.9-.4,1.7-1,2.1-2.1.1.6,0,.9-.1,1.1-1,.9-.3,1.2.4,1.6.6.3,1.1.5,1.7.8Z"/>
  <path class="cls-21" d="M5.8,28.3c-.1.3,0,.8-.6.8-.6,0-.7-.6-.9-1.1-.1-.5.3-.5.7-.5.6,0,.8.3.8.8Z"/>
  <path class="cls-26" d="M27.3,20.6c-.6-.2-1.3,0-1.8-.4,0,0-.1-.1,0-.2.1-.4-.2-.6-.2-.9,0-.3.2-.5.5-.5,0,0,.2.2.3.2.3.2.4.8,1,.5.4.4,0,1,.4,1.4Z"/>
  <path class="cls-29" d="M12.3,26.4c-.4,1.2.4,2.2.7,3.2-.2.8-.4.3-.7,0,.6-.4,0-.6-.1-.9-.1-.6-.4-1.1-.4-1.7,0-.3,0-.6,0-.9.3-.2.4,0,.6.2Z"/>
  <path class="cls-22" d="M21.7,19.9c.4-.7.9-1.3,1.7-1.5.7-.2,0-.4,0-.5.4-.3.8,0,1.2,0,0,.4-.2.6-.4.8-.7.3-1.2,1-2,1.4-.2,0-.3,0-.4-.1Z"/>
  <path class="cls-6" d="M24.1,18.6c0-.4.3-.5.5-.7.5,0,.9.1,1.1.7-.2.2-.3.3-.5.5-.5.2-1,.2-1.1-.4Z"/>
  <path class="cls-11" d="M26.9,19.2c0,.2,0,.7-.3.6-.6,0-.7-.6-.7-1.1.6-.3.8,0,1,.5Z"/>
  <path class="cls-16" d="M26.4,24.9c-1.1.5-2.3.5-3.5.5,0,0,0-.1,0-.2,1.2,0,2.4-.2,3.6-.3Z"/>
  <path class="cls-23" d="M25.5,13.4c-.2.3-.4.7-.6,1.3,0-.7,0-1.1-.3-1.5-.2-.4.2-.2.3-.2.2.2.4.3.6.5Z"/>
  <path class="cls-24" d="M21.4,16.5c-.4-.1-.8,0-1.2-.2,0-.2.2-.2.3-.2.6,0,1.2-.2,1.7.2-.3,0-.6,0-.8.3Z"/>
  <path class="cls-36" d="M20.5,16c0,0-.2.2-.3.2-1.1-.6-2.1-.5-2.9.5-.1.2-.3.4-.6.1-.4-.3-.6-2.5-.2-2.9.4-.4.6-.6,1.1,0,.7.9,1.7,1.5,2.9,1.8Z"/>
  <path class="cls-2" d="M19.1,11.7c-.8.6-1.7.1-2.5.3,0,0-.2-.1-.2-.2,0-1.1-.4-2.2.2-3.3.3-.5.6-1,1.3-1,.7,0,1,.5,1.2,1.1.2.5.3,1,.2,1.5-.4,0-.5-.3-.7-.5-.5-.8-.9-.7-1.2.1-.1.5-.4,1.1,0,1.5.5.3,1.1,0,1.5.4Z"/>
  <path class="cls-35" d="M19.1,11.7c-.6,0-1.3.2-1.9-.1.2-.4.6-.5.8-.9.2-.4.6-.8-.3-.8-.2,0-.4-.2-.5-.4,0-.5.3-.8.8-.9.5,0,.7.3.9.7.1.2.3.4.4.7.1.6-.1,1.1-.3,1.6Z"/>
  <path class="cls-17" d="M17,6.5c.2-.8.7-1,1.6-.8-.5.5-1.2.4-1.6.8Z"/>
  <path class="cls-1" d="M19.6,21.6c0,.6.5.9.6,1.4,0,.4-.1.7-.5.9-.2.2-.4.3-.7.3-1.4-.9-1.3-1.3.2-2.2-.3-.2-.7-.4-1-.6.6-.4,1-.2,1.4.2Z"/>
  <path class="cls-7" d="M19.6,21.6c-.5,0-1-.1-1.4-.2,0,0-.1-.1-.2-.2-.2-.6,0-1.1.7-1.4.6-.2,1.1-.2,1.5.4,0,.6-.2,1-.6,1.4Z"/>
  <path class="cls-8" d="M20.1,20.2c-1.3-.5-1.8-.3-2.2,1-.5-.3.1-.9-.3-1.2,0-.3,1.3-.3.2-.9.4-.5.8-.7,1.2,0,.3.6.9.7,1.5,1,0,0,0,.1,0,.2-.1,0-.2,0-.3,0,0,0-.1,0-.1,0Z"/>
  <path class="cls-32" d="M11.8,26.2c0,.3,0,.6,0,.9-.5-1.8,0-3.3.7-4.9.3-.2.6,0,.9,0,0,0,.1.2.2.3,0,.2-.1.3-.3.4-.6.2-.7.7-.8,1.2,0,.1,0,.2-.1.3-.4.5,0,1.3-.5,1.8Z"/>
  <path class="cls-27" d="M13.5,22.5c0,0,0-.1,0-.2-.2-.3,0-.3.2-.5.5-.3,1-.5,1.4.2-.2.2-.3.5-.5.7-.4.2-.9.3-1.2-.3Z"/>
  <path class="cls-10" d="M17.5,19.8c-.9-.5-2.1,0-3.1-.9,1.3.1,2.3.3,3.4.4.1.3.2.5-.2.5Z"/>
  <path class="cls-34" d="M20.6,20.2c0,0,0-.1,0-.2.4,0,.7,0,1.1,0,.2,0,.4,0,.5,0,1.1-.5,2.2-.6,3.2,0,0,0,0,.1,0,.2-1.6,0-3.3,0-4.9,0Z"/>
  <path class="cls-19" d="M17.5,19.8c.2-.1.2-.3.2-.5,0,0,.1-.1.2-.2.3,0,.9-.4.9.2,0,.8-.7.7-1.2.7,0,0-.1-.1-.2-.2Z"/>
  <path class="cls-3" d="M18.9,24.2c.2-.2.4-.3.7-.3-.2.3-.4.6,0,1-.6-.1-1.1.4-1.6.5,0-.1-.2-.3-.2-.4.6,0,1-.2,1.2-.7Z"/>
  <path class="cls-31" d="M13.7,21.9c0,.2-.1.3-.2.5-.3,0-.7-.1-1-.2-.1,0-.3-.1-.3-.2,0-.2.1-.2.3-.2.4,0,.8.1,1.2.2Z"/>
  <path class="cls-27" d="M11.8,26.2c.1-.7-.4-1.5.5-1.9.2,0,.3.2.3.4,0,.6,0,1.2-.3,1.7-.2,0-.3-.1-.5-.2Z"/>
  <path class="cls-18" d="M12.6,24.7c0-.1-.2-.3-.3-.4,0,0,0-.2,0-.3.4-.3.5-.8.9-1.1.1,0,.2-.2.3-.3.3.3.7.3,1.2.3-1.1.1-1.5,1.2-2.1,1.9Z"/>
  <path class="cls-4" d="M23.4,22c-1,.2-1.8.4-2.7.6,1.3-1.1,1.8-1.2,2.7-.6Z"/>
  <path class="cls-13" d="M25.5,20c-1.1,0-2.2,0-3.2,0,.4-.7,1-1.2,1.8-1.4.3.3.7.3,1.1.4.3.3,1.1.4.3,1Z"/>
  <path class="cls-15" d="M17.3,9.6c.2,0,.4,0,.6.2.2.3.3.6.4,1,0,.7-.4.8-.9.8-.5-.7-.3-1.3,0-2Z"/>
  <path class="cls-5" d="M18.2,10.8c-.4-.2-.5-.6-.4-1,.2-.2.4-.6.7-.1.3.5.2.9-.3,1.2Z"/>
  <path class="cls-27" d="M13.2,22.8c0,.6-.2,1.1-.9,1.1,0-.5-.2-1.4.9-1.1Z"/>
</svg>