<?xml version="1.0" encoding="UTF-8"?>
<svg id="Layer_1" data-name="Layer 1" xmlns="http://www.w3.org/2000/svg" version="1.1" viewBox="0 0 512 512">
  <path d="M3.7,186.3c0-63.9,0-95.9,12.4-120.3,10.9-21.5,28.4-38.9,49.9-49.9C90.4,3.7,122.4,3.7,186.3,3.7h139.4c63.9,0,95.9,0,120.3,12.4,21.5,10.9,38.9,28.4,49.9,49.9,12.4,24.4,12.4,56.4,12.4,120.3v139.4c0,63.9,0,95.9-12.4,120.3-10.9,21.5-28.4,38.9-49.9,49.9-24.4,12.4-56.4,12.4-120.3,12.4h-139.4c-63.9,0-95.9,0-120.3-12.4-21.5-10.9-38.9-28.4-49.9-49.9-12.4-24.4-12.4-56.4-12.4-120.3v-139.4Z" fill="#001e36" stroke-width="0"/>
  <g>
    <path d="M111.8,373.4v-221.9c0-1.5.6-2.4,2.1-2.4,21.7,0,43.5-1.3,65.2-1.3,35.3,0,73.5,12.1,86.8,49,3.2,9.1,4.8,18.3,4.8,28,0,18.5-4.2,33.9-12.6,45.9-23.5,33.7-64.2,33.2-100.7,33.2v69.2c.3,2-1.5,3-3.2,3h-40c-1.7,0-2.5-.9-2.5-2.8ZM157.6,190.8v72.5c14.5,1.1,29.6,1.2,43.5-3.4,15.4-4.4,23.8-17.7,23.8-33.6.4-13.6-7-26.6-19.6-31.5-13.7-5.7-32.9-6.1-47.7-3.9Z" fill="#31a8ff" stroke-width="0"/>
    <path d="M401.9,248.9c-6.4-3.4-13.1-5.8-20.1-7.3-9-2.1-44.5-9.5-44.5,9,.3,10.4,16.8,15.4,24,18.4,25.5,8.8,54.4,24.4,53.8,55.9.8,39.2-37.2,54.9-69.7,54.9-16.9.2-34.6-2.4-50.1-9.7-1.5-.8-2.4-2.5-2.4-4.2v-37.5c-.2-1.5,1.4-2.8,2.7-1.7,15.2,9.2,33.2,13.7,50.8,13.9,7.8,0,23.1-.8,23-12.2,0-10.9-18.4-16-25.7-18.8-10.6-3.8-20.7-9.1-30-15.6-12.9-9.2-21-24-20.8-40.3,0-36.9,34.9-53.5,66.4-53.5,14.7-.1,30.5,1,44.2,6.9,2,.6,2.4,2.7,2.4,4.5v35.1c.1,2.2-2.3,2.9-3.9,2.1Z" fill="#31a8ff" stroke-width="0"/>
  </g>
</svg>