<?xml version="1.0" encoding="UTF-8"?>
<svg id="Layer_1" data-name="Layer 1" xmlns="http://www.w3.org/2000/svg" version="1.1" viewBox="0 0 480 480">
  <defs>
    <style>
      .cls-1 {
        fill: #0277bd;
        stroke-width: 0px;
      }
    </style>
  </defs>
  <path class="cls-1" d="M330,340c0-2.1.1-3.8.2-5.6-.1-2.5-.2-4.4-.2-4.4,0,0,.1,0,.3-.2,1.5-26.7,8.9-37,16.7-42.9-1.1-1.5-2.4-3.2-3.6-4.8-3.3-4.4-7.5-9.8-11.9-16.7l-.8-1.6c-.7-1.6-2.3-4.5-4.4-8.2-11.8-21.4-36.5-65.9-19.6-94,7.4-12.3,21.2-19.4,41.2-21.2-8.2-23.2-38.8-79.3-108.2-80.4h0c-60.4-1-80.3,53.9-86.7,86.7,8.9-3.8,19.1-6.1,28.4-6.1h.4c22.9.2,38.6,12.4,43.2,33.5,3.3,15.5,5,29.1,4.9,41.5-.1,27.2-5.6,41.5-10.4,54.1l-1.5,4.1c-1.2,3.3-2.5,6.5-3.8,9.4-1.3,3-2.4,5.6-3.2,8,4.8,1.1,8.6,2.6,11.2,3.8l1.5.7c.5.2.9.4,1.4.7,8.5,5.2,13.8,13.1,14.9,22.3.6,5,.5,38.9.3,68.5.9,12.8,3.1,23.6,5.9,31.5,4.1,11.1,14.3,32.4,33.9,31.2,13.7-.8,26.9-9.2,35.6-20.2,9.4-11.8,12.8-24.9,14.1-39.6v-50.2h0Z"/>
  <path class="cls-1" d="M151.1,289.2c-16.1-16.8-24-39.5-21-60.6,2.8-20.3,1.2-40.3.4-51-.3-3.6-.5-6.2-.5-7.7,0,0,0-.1,0-.2,0,0,0,0,0-.1,1.2-30.2,12.9-77.9,44.9-106.2-15.6-6.1-41.1-14.3-64.9-13.4-37.4,1.4-73.6,27.2-70,100,1.4,27.3,32.2,191,74.4,190,6-.1,12.3-4,18.7-11.8,10.2-12.2,20.1-23.3,27.1-31-3.2-2.4-6.2-5-9.1-8ZM370.2,147.3c.1,1.5,0,2.9-.2,4.1.3,9.2-.7,18.1-1.7,26.8-.7,6.4-1.5,12.9-1.7,19.5-.2,6.5.7,12.8,1.7,19.6,2.2,15.8,4.6,33.6-7.6,54.4,2.2,3,4.2,5.7,5.8,8.4,46.1-74.8,64.7-163.6,46.9-186.3-26.8-34.3-64-44.2-93.4-43.7-9.2.1-17.6,1.4-24.7,2.9,50.8,24.6,73.4,77.3,75,94.4ZM410,300.7c-26.7,5.5-39.5,2.6-45.7-1.3-1,.7-2,1.3-2.9,1.9-3.7,2.3-9.6,5.8-11,27.8.8.2,1.6.3,2.5.4l4.4.4c13.2.6,30.5-3.1,40.6-7.8,21.9-10.1,33.8-25.9,12.2-21.5ZM220.2,321.2c-.4-3-2-5.4-4.9-7.3l-1.1-.5c-3.6-1.6-7.7-3.4-14.2-3.4h0c-1.3.1-2.5.2-3.8.2s-1,0-1.6,0c-4.7,3.6-11.5,6.5-28.2,9.9-29.8,7.6-12.2,16.6-.8,17.9,11.1,2.8,37.4,6.1,54.8-8.1,0-4.5-.1-7.6-.2-8.7Z"/>
  <path class="cls-1" d="M206.8,185c-2.9,3-7.5,5.7-12.6,4.8-8.3-1.3-14.6-11.3-14.2-15.1h0c.4-3.7,7.5-5.7,15.8-4.3,2.9.5,5.5,1.3,7.7,2.3-3.2-6.9-9-10.8-17.8-11.8-15.7-1.7-32.3,6.4-35.6,11,0,1.1.2,2.5.3,4.2.9,11.5,2.7,32.8-.5,55.4-2.1,14.9,3.9,31.7,15.7,44,7.6,7.9,16.4,12.9,25.1,14.4,1.1-4.8,3.1-9.4,5.1-14.2,1.1-2.6,2.3-5.5,3.5-8.5l1.6-4.3c4.4-11.6,9-23.5,9.1-47,0-9.1-1.1-19.4-3.2-30.6ZM348.5,220.1c-1-7.3-2.1-14.8-1.9-23,.2-7.4,1-14.4,1.8-21.2.6-5.3,1.1-10.5,1.4-15.5-12.9,1.1-21.5,4.8-25.5,11.1,1.7-.6,3.6-1,5.7-1.3,8.9-1.2,15.4,1.4,16.2,6.4.6,3.6-2.5,7-3.9,8.4-2.8,2.7-6.3,4.4-9.8,4.9-.6,0-1.3.1-1.9.1-3.5,0-6.9-1.2-9.5-3,1.1,19.7,15.7,46.1,22.8,59.1,1.5,2.8,2.7,5,3.7,6.9,3.9-11.2,2.5-21.4.9-32.8Z"/>
</svg>