<?xml version="1.0" encoding="UTF-8"?>
<svg id="Layer_1" data-name="Layer 1" xmlns="http://www.w3.org/2000/svg" version="1.1" xmlns:xlink="http://www.w3.org/1999/xlink" viewBox="0 0 512 512">
  <defs>
    <linearGradient id="linear-gradient" x1="406.4" y1="-28.6" x2="398.6" y2="460.7" gradientTransform="translate(0 476) scale(1 -1)" gradientUnits="userSpaceOnUse">
      <stop offset="0" stop-color="#589632"/>
      <stop offset="1" stop-color="#93b023"/>
    </linearGradient>
    <linearGradient id="linear-gradient-2" x1="259.8" y1="-36.4" x2="252.8" y2="448.9" xlink:href="#linear-gradient"/>
  </defs>
  <g id="Layer_1-2" data-name="Layer 1-2">
    <path id="polygon3" d="M276,274.5h70.7l-59.7-59.7h-73.8v70.7l62.8,62v-73.8h0v.8Z" fill="#ee7913" stroke-width="0"/>
    <path id="polygon10" d="M503.8,429.2l-126.4-124.9h-71.5v73.8l120.9,120.9h76.2v-69.1h.8v-.8Z" fill="url(#linear-gradient)" stroke-width="0"/>
    <path id="polygon12" d="M305.9,303.5h71.5l-29.8-29.8h-70.7v73.8l29.8,29.8v-73.8h-.8Z" fill="#f0e64a" stroke-width="0"/>
    <path id="path19" d="M290.9,402.5c-11,2.4-22,3.9-33.8,3.9-82.5,0-152.4-67.5-152.4-155.5s69.1-153.9,152.4-153.9,149.2,66,149.2,153.9-1.6,28.3-4.7,40.8l76.2,76.2c19.6-34.6,30.6-74.6,30.6-117.8,0-135.1-108.4-237.2-252.9-237.2S3.5,113.5,3.5,250.1s108.4,239.5,252.1,239.5,72.3-7.1,102.9-19.6l-68.3-67.5h.8Z" fill="url(#linear-gradient-2)" stroke-width="0"/>
    <path id="polygon4153" d="M213.2,214.8l289.8,283.5v-69.1l-126.4-124.9-29.8-29.8-59.7-59.7h-73.8Z" fill="#fff" fill-opacity=".2" stroke-width="0"/>
  </g>
</svg>