<?xml version="1.0" encoding="UTF-8"?>
<svg id="Layer_1" data-name="Layer 1" xmlns="http://www.w3.org/2000/svg" version="1.1" viewBox="0 0 477 477">
  <defs>
    <style>
      .cls-1 {
        fill: #60005b;
      }

      .cls-1, .cls-2, .cls-3 {
        stroke-width: 0px;
      }

      .cls-2 {
        fill: #192a5b;
      }

      .cls-3 {
        fill: none;
      }
    </style>
  </defs>
  <path class="cls-3" d="M0,0h499v499H0V0Z"/>
  <g>
    <path class="cls-2" d="M238.5,446.4c-114.6,0-207.9-93.3-207.9-207.9S123.9,30.6,238.5,30.6s207.9,93.3,207.9,207.9-93.3,207.9-207.9,207.9ZM238.5,72.2c-91.7,0-166.3,74.6-166.3,166.3s74.6,166.3,166.3,166.3,166.3-74.6,166.3-166.3-74.6-166.3-166.3-166.3Z"/>
    <path class="cls-1" d="M176.1,303.9c-34.4,0-62.4-28-62.4-62.4v-41.6c0-11.5,9.3-20.8,20.8-20.8s20.8,9.3,20.8,20.8v41.6c0,11.5,9.3,20.8,20.8,20.8s20.8-9.3,20.8-20.8v-41.6c0-11.5,9.3-20.8,20.8-20.8s20.8,9.3,20.8,20.8v41.6c0,34.4-28,62.4-62.4,62.4Z"/>
    <path class="cls-1" d="M342.5,300.9c-6.3,0-12.6-2.9-16.7-8.3l-62.4-83.2c-6.9-9.2-5-22.2,4.2-29.1,9.2-6.9,22.2-5,29.1,4.2l62.4,83.2c6.9,9.2,5,22.2-4.2,29.1-3.7,2.8-8.1,4.2-12.5,4.2Z"/>
    <path class="cls-1" d="M280.1,300.9c-4.3,0-8.7-1.4-12.5-4.2-9.2-6.9-11.1-19.9-4.2-29.1l62.4-83.2c6.9-9.2,19.9-11.1,29.1-4.2,9.2,6.9,11.1,19.9,4.2,29.1l-62.4,83.2c-4.1,5.4-10.3,8.3-16.7,8.3Z"/>
  </g>
</svg>